<?xml version="1.0" standalone="no"?>
<!DOCTYPE svg PUBLIC "-//W3C//DTD SVG 20010904//EN"
 "http://www.w3.org/TR/2001/REC-SVG-20010904/DTD/svg10.dtd">
<svg version="1.0" xmlns="http://www.w3.org/2000/svg"
 width="127.000000pt" height="129.000000pt" viewBox="0 0 127.000000 129.000000"
 preserveAspectRatio="xMidYMid meet">
<metadata>
Created by potrace 1.16, written by Peter Selinger 2001-2019
</metadata>
<g transform="translate(0.000000,129.000000) scale(0.100000,-0.100000)"
fill="#000000" stroke="none">
<path d="M728 1188 c-54 -14 -121 -78 -147 -139 -66 -153 -61 -349 9 -349 53
0 155 159 167 260 l6 55 13 -30 c62 -145 -98 -346 -305 -385 -70 -13 -206 -13
-253 1 -21 5 -50 21 -65 34 -24 20 -29 33 -33 92 l-6 68 -27 -55 c-47 -97 -27
-194 53 -246 30 -20 39 -32 34 -43 -42 -94 -56 -159 -52 -246 5 -145 41 -160
97 -42 35 73 60 99 121 125 89 38 228 46 297 17 51 -22 79 -50 114 -116 17
-31 43 -69 59 -84 62 -59 81 1 56 174 -20 145 -20 253 -1 339 23 101 50 140
123 182 132 75 199 145 209 219 8 57 -9 74 -61 67 -55 -8 -150 17 -195 53 -20
15 -45 33 -56 38 -31 17 -116 23 -157 11z"/>
</g>
</svg>
